<svg xmlns="http://www.w3.org/2000/svg" viewBox="0 0 395.69 228.81"><defs><style>.a{fill:#fff;}.b{font-size:48.73px;}.b,.c{font-family:FiraCode-Retina, Fira Code;}.c{font-size:41.45px;}.d{fill:none;stroke:#000;stroke-miterlimit:10;stroke-width:2px;}</style></defs><title>intransitivity</title><path class="a" d="M269.73,129.77a32.89,32.89,0,1,1,32.89-32.88A32.93,32.93,0,0,1,269.73,129.77Z" transform="translate(-52.31 -63)"/><path d="M269.73,65a31.89,31.89,0,1,1-31.89,31.89A31.93,31.93,0,0,1,269.73,65m0-2a33.89,33.89,0,1,0,33.89,33.89A33.89,33.89,0,0,0,269.73,63Z" transform="translate(-52.31 -63)"/><path class="a" d="M86.19,133.44a32.89,32.89,0,1,1,32.89-32.88A32.92,32.92,0,0,1,86.19,133.44Z" transform="translate(-52.31 -63)"/><path d="M86.19,68.67a31.89,31.89,0,1,1-31.88,31.89A31.93,31.93,0,0,1,86.19,68.67m0-2a33.89,33.89,0,1,0,33.89,33.89A33.88,33.88,0,0,0,86.19,66.67Z" transform="translate(-52.31 -63)"/><text class="b" transform="translate(19.83 51.5)">A</text><text class="c" transform="translate(193.11 46.57)">BC</text><path class="a" d="M264.84,286.39a32.89,32.89,0,1,1,32.88-32.89A32.92,32.92,0,0,1,264.84,286.39Z" transform="translate(-52.31 -63)"/><path d="M264.84,221.62A31.89,31.89,0,1,1,233,253.5a31.91,31.91,0,0,1,31.89-31.88m0-2a33.89,33.89,0,1,0,33.88,33.88,33.88,33.88,0,0,0-33.88-33.88Z" transform="translate(-52.31 -63)"/><text class="b" transform="translate(198.47 204.45)">E</text><path class="a" d="M414.11,219.09A32.89,32.89,0,1,1,447,186.21,32.92,32.92,0,0,1,414.11,219.09Z" transform="translate(-52.31 -63)"/><path d="M414.11,154.32a31.89,31.89,0,1,1-31.88,31.89,31.93,31.93,0,0,1,31.88-31.89m0-2A33.89,33.89,0,1,0,448,186.21a33.88,33.88,0,0,0-33.89-33.89Z" transform="translate(-52.31 -63)"/><text class="b" transform="translate(347.75 137.15)">D</text><line x1="68.15" y1="37.93" x2="183.16" y2="34.26"/><line class="d" x1="68.15" y1="37.93" x2="172.18" y2="34.61"/><polygon points="169.84 38.29 183.16 34.26 169.61 31.09 169.84 38.29"/><path class="d" d="M303.58,101c25.61,3.19,68.79,21.24,84,49.64" transform="translate(-52.31 -63)"/><polygon points="330.84 86.84 339.29 97.89 337.5 84.09 330.84 86.84"/><path class="d" d="M396,211.62c-16,20.24-53.83,47.82-86,46.07" transform="translate(-52.31 -63)"/><polygon points="260.71 191.36 246.88 192.86 259.61 198.48 260.71 191.36"/><path class="d" d="M240.53,230.39c-9.32-24.06-13.89-70.64,3.94-97.46" transform="translate(-52.31 -63)"/><polygon points="193.51 74.21 199.23 61.53 187.93 69.65 193.51 74.21"/></svg>