<?xml version="1.0" encoding="UTF-8" standalone="no"?>
<!-- Created with Inkscape (http://www.inkscape.org/) -->

<svg
   width="500"
   height="500"
   viewBox="0 0 132.29166 132.29167"
   version="1.1"
   id="svg1"
   inkscape:version="1.3.2 (091e20e, 2023-11-25, custom)"
   sodipodi:docname="favicon.svg"
   inkscape:export-filename="favicon.png"
   inkscape:export-xdpi="96"
   inkscape:export-ydpi="96"
   xmlns:inkscape="http://www.inkscape.org/namespaces/inkscape"
   xmlns:sodipodi="http://sodipodi.sourceforge.net/DTD/sodipodi-0.dtd"
   xmlns="http://www.w3.org/2000/svg"
   xmlns:svg="http://www.w3.org/2000/svg">
  <sodipodi:namedview
     id="namedview1"
     pagecolor="#ffffff"
     bordercolor="#000000"
     borderopacity="0.25"
     inkscape:showpageshadow="2"
     inkscape:pageopacity="0.0"
     inkscape:pagecheckerboard="0"
     inkscape:deskcolor="#d1d1d1"
     inkscape:document-units="px"
     inkscape:zoom="0.75024446"
     inkscape:cx="209.26512"
     inkscape:cy="131.29054"
     inkscape:window-width="2560"
     inkscape:window-height="1369"
     inkscape:window-x="-8"
     inkscape:window-y="-8"
     inkscape:window-maximized="1"
     inkscape:current-layer="layer1" />
  <defs
     id="defs1" />
  <g
     inkscape:label="Layer 1"
     inkscape:groupmode="layer"
     id="layer1">
    <circle
       style="fill:#ffffff;fill-opacity:1;stroke-width:0.708465"
       id="path3"
       cx="66.145836"
       cy="66.145836"
       r="59.038773" />
    <path
       d="m 90.455976,12.362553 c 3.689531,2.336054 6.62742,5.137373 8.783443,8.422741 3.031251,4.619042 4.547011,9.671069 4.547011,15.156181 0,14.723195 -6.712152,25.404684 -20.13624,32.044555 -13.279745,6.639873 -31.178637,11.042805 -53.696463,13.207979 0.433034,16.022304 7.794798,24.033161 22.084956,24.033161 5.196422,0 10.17627,-0.79397 14.939657,-2.38177 4.763386,-1.73214 9.743234,-4.474434 14.939656,-8.227404 l 10.609688,17.321424 c -9.251858,6.5534 -18.795196,10.90652 -28.626159,13.08447 a 59.038784,59.038784 0 0 0 2.244307,0.16072 A 59.038784,59.038784 0 0 0 125.18461,66.145832 59.038784,59.038784 0 0 0 90.455976,12.362553 Z m -28.24117,12.969751 c -8.949392,0 -15.950258,3.608443 -21.002335,10.825695 -5.052077,7.217253 -8.443983,16.239135 -10.176123,27.065015 15.15623,-1.443451 26.342973,-4.33062 33.560225,-8.66097 7.361598,-4.330353 11.042737,-10.104171 11.042737,-17.321424 0,-3.17559 -1.082688,-5.917884 -3.247864,-8.227404 -2.020831,-2.453866 -5.413252,-3.680912 -10.17664,-3.680912 z"
       style="fill:#499293;stroke-width:0.708465;fill-opacity:1"
       id="path2" />
  </g>
</svg>
