<?xml version="1.0" encoding="UTF-8" standalone="no"?>
<!-- Created with Inkscape (http://www.inkscape.org/) -->

<svg
   width="500"
   height="500"
   viewBox="0 0 132.29166 132.29167"
   version="1.1"
   id="svg1"
   inkscape:version="1.3.2 (091e20e, 2023-11-25, custom)"
   sodipodi:docname="favicon.svg"
   inkscape:export-filename="favicon.png"
   inkscape:export-xdpi="96"
   inkscape:export-ydpi="96"
   xmlns:inkscape="http://www.inkscape.org/namespaces/inkscape"
   xmlns:sodipodi="http://sodipodi.sourceforge.net/DTD/sodipodi-0.dtd"
   xmlns:xlink="http://www.w3.org/1999/xlink"
   xmlns="http://www.w3.org/2000/svg"
   xmlns:svg="http://www.w3.org/2000/svg">
  <sodipodi:namedview
     id="namedview1"
     pagecolor="#ffffff"
     bordercolor="#000000"
     borderopacity="0.25"
     inkscape:showpageshadow="2"
     inkscape:pageopacity="0.0"
     inkscape:pagecheckerboard="0"
     inkscape:deskcolor="#d1d1d1"
     inkscape:document-units="px"
     inkscape:zoom="2.1220118"
     inkscape:cx="265.78552"
     inkscape:cy="237.27484"
     inkscape:window-width="2560"
     inkscape:window-height="1369"
     inkscape:window-x="-8"
     inkscape:window-y="-8"
     inkscape:window-maximized="1"
     inkscape:current-layer="layer1" />
  <defs
     id="defs1">
    <linearGradient
       id="linearGradient4"
       inkscape:collect="always">
      <stop
         style="stop-color:#4ba9af;stop-opacity:1;"
         offset="0"
         id="stop4" />
      <stop
         style="stop-color:#499293;stop-opacity:0;"
         offset="1"
         id="stop5" />
    </linearGradient>
    <linearGradient
       inkscape:collect="always"
       xlink:href="#linearGradient4"
       id="linearGradient5"
       x1="43.53883"
       y1="45.659622"
       x2="106.31328"
       y2="92.70797"
       gradientUnits="userSpaceOnUse" />
  </defs>
  <g
     inkscape:label="Layer 1"
     inkscape:groupmode="layer"
     id="layer1">
    <ellipse
       style="fill:#ffffff;fill-opacity:1;stroke-width:0.792958"
       id="path3"
       cx="66.208656"
       cy="66.214943"
       inkscape:label="background"
       rx="66.083008"
       ry="66.076721" />
    <path
       d="m 86.136497,23.09651 c 3.024433,1.872831 5.432719,4.118667 7.200084,6.75257 2.484818,3.703118 3.727337,7.753363 3.727337,12.150815 0,11.803688 -5.502176,20.367112 -16.506352,25.690343 -10.885853,5.323232 -25.558176,8.853093 -44.016794,10.588928 0.354972,12.845193 6.389658,19.267552 18.10378,19.267552 4.259682,0 8.34183,-0.636531 12.246539,-1.909481 3.904707,-1.388669 7.986856,-3.587185 12.246538,-6.595967 l 8.697117,13.88671 c -7.584059,5.2539 -15.407053,8.74383 -23.465824,10.48991 a 48.396074,47.331803 0 0 0 1.839734,0.12885 A 48.396074,47.331803 0 0 0 114.60473,66.214938 48.396074,47.331803 0 0 0 86.136497,23.09651 Z M 62.986262,33.494449 c -7.336117,0 -13.074962,2.892914 -17.21632,8.679035 -4.141357,5.786122 -6.921816,13.019028 -8.341709,21.698211 12.42407,-1.157225 21.594219,-3.471888 27.510443,-6.94356 6.034549,-3.471674 9.052103,-8.100584 9.052103,-13.886706 0,-2.545893 -0.887516,-4.744409 -2.662384,-6.595967 -1.656543,-1.967281 -4.437424,-2.951013 -8.342133,-2.951013 z"
       style="fill:#499293;fill-opacity:1;stroke-width:0.574331"
       id="path2"
       inkscape:label="icon" />
    <path
       d="m 86.136497,23.09651 c 3.024433,1.872831 5.432719,4.118667 7.200084,6.75257 2.484818,3.703118 3.727337,7.753363 3.727337,12.150815 0,11.803688 -5.502176,20.367112 -16.506352,25.690343 -10.885853,5.323232 -25.558176,8.853093 -44.016794,10.588928 0.354972,12.845193 6.389658,19.267552 18.10378,19.267552 4.259682,0 8.34183,-0.636531 12.246539,-1.909481 3.904707,-1.388669 7.986856,-3.587185 12.246538,-6.595967 l 8.697117,13.88671 c -7.584059,5.2539 -15.407053,8.74383 -23.465824,10.48991 a 48.396074,47.331803 0 0 0 1.839734,0.12885 A 48.396074,47.331803 0 0 0 114.60473,66.214938 48.396074,47.331803 0 0 0 86.136497,23.09651 Z M 62.986262,33.494449 c -7.336117,0 -13.074962,2.892914 -17.21632,8.679035 -4.141357,5.786122 -6.921816,13.019028 -8.341709,21.698211 12.42407,-1.157225 21.594219,-3.471888 27.510443,-6.94356 6.034549,-3.471674 9.052103,-8.100584 9.052103,-13.886706 0,-2.545893 -0.887516,-4.744409 -2.662384,-6.595967 -1.656543,-1.967281 -4.437424,-2.951013 -8.342133,-2.951013 z"
       style="fill:url(#linearGradient5);fill-opacity:1;stroke-width:0.574331;fill-rule:nonzero"
       id="path4"
       inkscape:label="sheen" />
  </g>
</svg>
